# MagicaVoxel @ Ephtracy

# group
o 

# material
mtllib untitled.mtl
usemtl palette

# normals
vn -1 0 0
vn 1 0 0
vn 0 0 1
vn 0 0 -1
vn 0 -1 0
vn 0 1 0

# texcoords
vt 0.841797 0.5
vt 0.958984 0.5
vt 0.962891 0.5
vt 0.994141 0.5

# verts
v -1.7 1.4 0
v -1.7 1.4 -0.1
v -1.7 5 0
v -1.7 5 -0.1
v 1.9 1.4 0
v 1.9 1.4 -0.1
v 1.9 5 0
v 1.9 5 -0.1
v -1.7 1.4 0
v -1.7 5 0
v -1.5 1.6 0
v -1.5 4.8 0
v -1.3 1.8 0
v -1.3 4.6 0
v -1.1 2 0
v -1.1 4.4 0
v -0.9 2.2 0
v -0.9 4.2 0
v -0.7 2.4 0
v -0.7 4 0
v -0.5 2.6 0
v -0.5 3.8 0
v -0.3 2.8 0
v -0.3 3.6 0
v -0.0999999 3 0
v -0.0999999 3.4 0
v 1.19209e-07 3.1 0
v 1.19209e-07 3.3 0
v 0.2 3.1 0
v 0.2 3.3 0
v 0.3 3 0
v 0.3 3.4 0
v 0.5 2.8 0
v 0.5 3.6 0
v 0.7 2.6 0
v 0.7 3.8 0
v 0.9 2.4 0
v 0.9 4 0
v 1.1 2.2 0
v 1.1 4.2 0
v 1.3 2 0
v 1.3 4.4 0
v 1.5 1.8 0
v 1.5 4.6 0
v 1.7 1.6 0
v 1.7 4.8 0
v 1.9 1.4 0
v 1.9 5 0
v -1.7 1.4 -0.1
v -1.7 5 -0.1
v -1.5 1.6 -0.1
v -1.5 4.8 -0.1
v -1.3 1.8 -0.1
v -1.3 4.6 -0.1
v -1.1 2 -0.1
v -1.1 4.4 -0.1
v -0.9 2.2 -0.1
v -0.9 4.2 -0.1
v -0.7 2.4 -0.1
v -0.7 4 -0.1
v -0.5 2.6 -0.1
v -0.5 3.8 -0.1
v -0.3 2.8 -0.1
v -0.3 3.6 -0.1
v -0.0999999 3 -0.1
v -0.0999999 3.4 -0.1
v 1.19209e-07 3.1 -0.1
v 1.19209e-07 3.3 -0.1
v 0.2 3.1 -0.1
v 0.2 3.3 -0.1
v 0.3 3 -0.1
v 0.3 3.4 -0.1
v 0.5 2.8 -0.1
v 0.5 3.6 -0.1
v 0.7 2.6 -0.1
v 0.7 3.8 -0.1
v 0.9 2.4 -0.1
v 0.9 4 -0.1
v 1.1 2.2 -0.1
v 1.1 4.2 -0.1
v 1.3 2 -0.1
v 1.3 4.4 -0.1
v 1.5 1.8 -0.1
v 1.5 4.6 -0.1
v 1.7 1.6 -0.1
v 1.7 4.8 -0.1
v 1.9 1.4 -0.1
v 1.9 5 -0.1
v -1.7 1.4 0
v 1.9 1.4 0
v -1.7 1.4 -0.1
v 1.9 1.4 -0.1
v -1.7 5 0
v 1.9 5 0
v -1.7 5 -0.1
v 1.9 5 -0.1

# faces
f 3/4/1 2/4/1 1/4/1
f 4/4/1 2/4/1 3/4/1
f 5/4/2 6/4/2 7/4/2
f 7/4/2 6/4/2 8/4/2
f 11/4/3 10/4/3 9/4/3
f 12/4/3 10/4/3 11/4/3
f 13/2/3 12/2/3 11/2/3
f 14/2/3 12/2/3 13/2/3
f 15/4/3 14/4/3 13/4/3
f 16/4/3 14/4/3 15/4/3
f 17/3/3 16/3/3 15/3/3
f 18/3/3 16/3/3 17/3/3
f 19/4/3 18/4/3 17/4/3
f 20/4/3 18/4/3 19/4/3
f 21/2/3 20/2/3 19/2/3
f 22/2/3 20/2/3 21/2/3
f 23/4/3 22/4/3 21/4/3
f 24/4/3 22/4/3 23/4/3
f 25/2/3 24/2/3 23/2/3
f 26/2/3 24/2/3 25/2/3
f 27/4/3 26/4/3 25/4/3
f 28/4/3 26/4/3 27/4/3
f 29/4/3 27/4/3 25/4/3
f 29/1/3 28/1/3 27/1/3
f 30/4/3 26/4/3 28/4/3
f 30/1/3 28/1/3 29/1/3
f 31/2/3 25/2/3 23/2/3
f 31/4/3 29/4/3 25/4/3
f 31/4/3 30/4/3 29/4/3
f 32/4/3 26/4/3 30/4/3
f 32/4/3 30/4/3 31/4/3
f 32/2/3 24/2/3 26/2/3
f 33/4/3 23/4/3 21/4/3
f 33/2/3 31/2/3 23/2/3
f 33/2/3 32/2/3 31/2/3
f 34/2/3 24/2/3 32/2/3
f 34/2/3 32/2/3 33/2/3
f 34/4/3 22/4/3 24/4/3
f 35/2/3 21/2/3 19/2/3
f 35/4/3 33/4/3 21/4/3
f 35/4/3 34/4/3 33/4/3
f 36/4/3 22/4/3 34/4/3
f 36/4/3 34/4/3 35/4/3
f 36/2/3 20/2/3 22/2/3
f 37/4/3 19/4/3 17/4/3
f 37/2/3 35/2/3 19/2/3
f 37/2/3 36/2/3 35/2/3
f 38/2/3 20/2/3 36/2/3
f 38/2/3 36/2/3 37/2/3
f 38/4/3 18/4/3 20/4/3
f 39/3/3 17/3/3 15/3/3
f 39/4/3 37/4/3 17/4/3
f 39/4/3 38/4/3 37/4/3
f 40/4/3 18/4/3 38/4/3
f 40/4/3 38/4/3 39/4/3
f 40/3/3 16/3/3 18/3/3
f 41/4/3 15/4/3 13/4/3
f 41/3/3 39/3/3 15/3/3
f 41/3/3 40/3/3 39/3/3
f 42/3/3 16/3/3 40/3/3
f 42/3/3 40/3/3 41/3/3
f 42/4/3 14/4/3 16/4/3
f 43/2/3 13/2/3 11/2/3
f 43/4/3 41/4/3 13/4/3
f 43/4/3 42/4/3 41/4/3
f 44/4/3 14/4/3 42/4/3
f 44/4/3 42/4/3 43/4/3
f 44/2/3 12/2/3 14/2/3
f 45/4/3 11/4/3 9/4/3
f 45/2/3 43/2/3 11/2/3
f 45/2/3 44/2/3 43/2/3
f 46/2/3 12/2/3 44/2/3
f 46/2/3 44/2/3 45/2/3
f 46/4/3 10/4/3 12/4/3
f 47/4/3 45/4/3 9/4/3
f 47/4/3 46/4/3 45/4/3
f 48/4/3 10/4/3 46/4/3
f 48/4/3 46/4/3 47/4/3
f 49/4/4 50/4/4 51/4/4
f 51/4/4 50/4/4 52/4/4
f 51/2/4 52/2/4 53/2/4
f 53/2/4 52/2/4 54/2/4
f 53/4/4 54/4/4 55/4/4
f 55/4/4 54/4/4 56/4/4
f 55/3/4 56/3/4 57/3/4
f 57/3/4 56/3/4 58/3/4
f 57/4/4 58/4/4 59/4/4
f 59/4/4 58/4/4 60/4/4
f 59/2/4 60/2/4 61/2/4
f 61/2/4 60/2/4 62/2/4
f 61/4/4 62/4/4 63/4/4
f 63/4/4 62/4/4 64/4/4
f 63/2/4 64/2/4 65/2/4
f 65/2/4 64/2/4 66/2/4
f 65/4/4 66/4/4 67/4/4
f 67/4/4 66/4/4 68/4/4
f 65/4/4 67/4/4 69/4/4
f 67/1/4 68/1/4 69/1/4
f 68/4/4 66/4/4 70/4/4
f 69/1/4 68/1/4 70/1/4
f 63/2/4 65/2/4 71/2/4
f 65/4/4 69/4/4 71/4/4
f 69/4/4 70/4/4 71/4/4
f 70/4/4 66/4/4 72/4/4
f 71/4/4 70/4/4 72/4/4
f 66/2/4 64/2/4 72/2/4
f 61/4/4 63/4/4 73/4/4
f 63/2/4 71/2/4 73/2/4
f 71/2/4 72/2/4 73/2/4
f 72/2/4 64/2/4 74/2/4
f 73/2/4 72/2/4 74/2/4
f 64/4/4 62/4/4 74/4/4
f 59/2/4 61/2/4 75/2/4
f 61/4/4 73/4/4 75/4/4
f 73/4/4 74/4/4 75/4/4
f 74/4/4 62/4/4 76/4/4
f 75/4/4 74/4/4 76/4/4
f 62/2/4 60/2/4 76/2/4
f 57/4/4 59/4/4 77/4/4
f 59/2/4 75/2/4 77/2/4
f 75/2/4 76/2/4 77/2/4
f 76/2/4 60/2/4 78/2/4
f 77/2/4 76/2/4 78/2/4
f 60/4/4 58/4/4 78/4/4
f 55/3/4 57/3/4 79/3/4
f 57/4/4 77/4/4 79/4/4
f 77/4/4 78/4/4 79/4/4
f 78/4/4 58/4/4 80/4/4
f 79/4/4 78/4/4 80/4/4
f 58/3/4 56/3/4 80/3/4
f 53/4/4 55/4/4 81/4/4
f 55/3/4 79/3/4 81/3/4
f 79/3/4 80/3/4 81/3/4
f 80/3/4 56/3/4 82/3/4
f 81/3/4 80/3/4 82/3/4
f 56/4/4 54/4/4 82/4/4
f 51/2/4 53/2/4 83/2/4
f 53/4/4 81/4/4 83/4/4
f 81/4/4 82/4/4 83/4/4
f 82/4/4 54/4/4 84/4/4
f 83/4/4 82/4/4 84/4/4
f 54/2/4 52/2/4 84/2/4
f 49/4/4 51/4/4 85/4/4
f 51/2/4 83/2/4 85/2/4
f 83/2/4 84/2/4 85/2/4
f 84/2/4 52/2/4 86/2/4
f 85/2/4 84/2/4 86/2/4
f 52/4/4 50/4/4 86/4/4
f 49/4/4 85/4/4 87/4/4
f 85/4/4 86/4/4 87/4/4
f 86/4/4 50/4/4 88/4/4
f 87/4/4 86/4/4 88/4/4
f 91/4/5 90/4/5 89/4/5
f 92/4/5 90/4/5 91/4/5
f 93/4/6 94/4/6 95/4/6
f 95/4/6 94/4/6 96/4/6
